<?xml version="1.0" encoding="UTF-8" standalone="no"?>
<!DOCTYPE svg PUBLIC "-//W3C//DTD SVG 1.1//EN" "http://www.w3.org/Graphics/SVG/1.1/DTD/svg11.dtd">
<svg width="100%" height="100%" viewBox="0 0 512 512" version="1.1" xmlns="http://www.w3.org/2000/svg" xmlns:xlink="http://www.w3.org/1999/xlink" xml:space="preserve" xmlns:serif="http://www.serif.com/" style="fill-rule:evenodd;clip-rule:evenodd;stroke-linejoin:round;stroke-miterlimit:2;">
    <g transform="matrix(0.563263,0,0,0.850842,-17.7831,112.12)">
        <g transform="matrix(88.0842,0,0,88.0842,120.291,349.236)">
            <path d="M0.407,-0.334L1.176,-0.331L1.177,-0.532L0.407,-0.535L0.407,-0.334ZM0.407,-0.002C0.407,-0.002 1.176,0.001 1.176,0.001L1.177,-0.2L0.407,-0.203C0.278,-0.203 0.172,-0.309 0.172,-0.438C0.172,-0.567 0.278,-0.672 0.407,-0.672L1.176,-0.669L1.177,-0.87L0.407,-0.874C0.167,-0.874 -0.029,-0.678 -0.029,-0.438C-0.029,-0.198 0.167,-0.002 0.407,-0.002Z" style="fill:rgb(204,14,14);fill-rule:nonzero;"/>
        </g>
        <g transform="matrix(88.0842,0,0,88.0842,243.257,349.236)">
            <path d="M1.084,-0.873C1.084,-0.873 0.028,-0.873 0.028,-0.873L0.028,-0.672L0.922,-0.672L0.119,-0.323C0.043,-0.294 0,-0.219 0.014,-0.138C0.028,-0.056 0.096,0.001 0.179,0.001L1.235,0.001L1.235,-0.2L0.341,-0.2L1.144,-0.549C1.22,-0.578 1.263,-0.654 1.249,-0.734C1.235,-0.816 1.167,-0.873 1.084,-0.873Z" style="fill-rule:nonzero;"/>
        </g>
        <g transform="matrix(88.0842,0,0,88.0842,373.886,349.236)">
            <path d="M0.201,-0.671L1.005,-0.671L1.005,-0.5L0.335,-0.5L0.335,-0.299L1.005,-0.299L1.005,-0L1.206,-0L1.206,-0.705C1.206,-0.797 1.131,-0.872 1.039,-0.872L0.168,-0.872C0.075,-0.872 -0,-0.797 -0,-0.705L-0,-0L0.201,-0L0.201,-0.671Z" style="fill:rgb(204,14,14);fill-rule:nonzero;"/>
        </g>
        <g transform="matrix(88.0842,0,0,88.0842,499.494,349.236)">
            <path d="M0.937,-0.537L0.27,-0.537C0.232,-0.537 0.201,-0.568 0.201,-0.605C0.201,-0.643 0.232,-0.674 0.27,-0.674L1.204,-0.674L1.204,-0.875L0.27,-0.875C0.121,-0.875 -0,-0.754 -0,-0.605C-0,-0.457 0.121,-0.336 0.27,-0.336L0.937,-0.336C0.974,-0.336 1.005,-0.305 1.005,-0.267C1.005,-0.229 0.974,-0.198 0.937,-0.198L0.001,-0.198L0.001,0.003L0.937,0.003C1.085,0.003 1.206,-0.118 1.206,-0.267C1.206,-0.416 1.085,-0.537 0.937,-0.537Z" style="fill-rule:nonzero;"/>
        </g>
        <g transform="matrix(88.0842,0,0,88.0842,625.102,349.236)">
            <path d="M0.937,-0.537L0.27,-0.537C0.232,-0.537 0.201,-0.568 0.201,-0.605C0.201,-0.643 0.232,-0.674 0.27,-0.674L1.204,-0.674L1.204,-0.875L0.27,-0.875C0.121,-0.875 -0,-0.754 -0,-0.605C-0,-0.457 0.121,-0.336 0.27,-0.336L0.937,-0.336C0.974,-0.336 1.005,-0.305 1.005,-0.267C1.005,-0.229 0.974,-0.198 0.937,-0.198L0.001,-0.198L0.001,0.003L0.937,0.003C1.085,0.003 1.206,-0.118 1.206,-0.267C1.206,-0.416 1.085,-0.537 0.937,-0.537Z" style="fill-rule:nonzero;"/>
        </g>
        <g transform="matrix(88.0842,0,0,88.0842,750.71,349.236)">
            <path d="M0.407,-0.334L1.176,-0.331L1.177,-0.532L0.407,-0.535L0.407,-0.334ZM0.407,-0.002C0.407,-0.002 1.176,0.001 1.176,0.001L1.177,-0.2L0.407,-0.203C0.278,-0.203 0.172,-0.309 0.172,-0.438C0.172,-0.567 0.278,-0.672 0.407,-0.672L1.176,-0.669L1.177,-0.87L0.407,-0.874C0.167,-0.874 -0.029,-0.678 -0.029,-0.438C-0.029,-0.198 0.167,-0.002 0.407,-0.002Z" style="fill-rule:nonzero;"/>
        </g>
    </g>
    <g transform="matrix(0.705469,0,0,0.705469,83.3513,43.4451)">
        <path d="M258.512,375.148L170.667,375.148C129.792,375.148 96.606,341.962 96.606,301.087L96.606,152.964C96.606,112.088 129.792,78.903 170.667,78.903L318.79,78.903C359.666,78.903 392.852,112.088 392.852,152.964L392.852,185.703L337.861,185.703L337.861,180.459C337.861,154.759 316.996,133.893 291.295,133.893L198.163,133.893C172.462,133.893 151.596,154.759 151.596,180.459L151.596,273.592C151.596,299.292 172.462,320.158 198.163,320.158L258.482,320.158L258.512,375.148Z"/>
    </g>
    <g transform="matrix(0.705469,0,0,0.705469,83.3513,43.4451)">
        <path d="M286.03,320.158L291.295,320.158C316.996,320.158 337.861,299.292 337.861,273.592L337.861,268.348L392.852,268.348L392.852,301.087C392.852,341.962 359.666,375.148 318.79,375.148L286.061,375.148L286.03,320.158Z"/>
    </g>
    <g transform="matrix(0.705469,0,0,0.705469,83.3513,43.4451)">
        <rect x="337.861" y="213.251" width="54.99" height="27.548" style="fill:rgb(204,14,14);"/>
    </g>
</svg>
