<svg t="1732205776389" class="icon" viewBox="0 0 1024 1024" version="1.1" xmlns="http://www.w3.org/2000/svg" p-id="2163" width="128" height="128"><path d="M140.33 768.466l76.308 0.45 0.1-30.128-76.408-0.45v30.128z m0 49.764l76.308 0.45 0.1-30.128-76.408-0.45c-12.8 0-23.318-15.89-23.318-35.226s10.52-35.074 23.32-35.074l76.306 0.45 0.1-30.128-76.408-0.6c-23.814 0-43.262 29.38-43.262 65.352 0 35.974 19.448 65.354 43.262 65.354z" fill="#CC0E0E" p-id="2164"></path><path d="M346.034 687.674h-104.786v30.128h88.71l-79.68 52.312c-7.542 4.348-11.808 15.59-10.42 27.73 1.39 12.292 8.138 20.836 16.374 20.836h104.786v-30.128h-88.712l79.68-52.314c7.542-4.346 11.81-15.738 10.42-27.73-1.388-12.29-8.136-20.834-16.372-20.834z" p-id="2165"></path><path d="M405.572 717.952h79.78v25.632h-66.484v30.128h66.484v44.818h19.944v-105.674c0-13.79-7.44-25.032-16.57-25.032h-86.43c-9.228 0-16.67 11.24-16.67 25.032v105.674h19.946v-100.578z" fill="#CC0E0E" p-id="2166"></path><path d="M620.104 738.038H553.92c-3.77 0-6.846-4.648-6.846-10.194 0-5.694 3.076-10.34 6.846-10.34h92.68v-30.13h-92.68c-14.784 0-26.792 18.138-26.792 40.47 0 22.184 12.008 40.32 26.792 40.32h66.186c3.672 0 6.748 4.648 6.748 10.344s-3.076 10.342-6.748 10.342h-92.878v30.128h92.88c14.684 0 26.692-18.136 26.692-40.47s-12.008-40.47-26.694-40.47zM761.606 738.038H695.42c-3.772 0-6.848-4.648-6.848-10.194 0-5.694 3.076-10.34 6.848-10.34h92.68v-30.13h-92.68c-14.786 0-26.792 18.138-26.792 40.47 0 22.184 12.006 40.32 26.792 40.32h66.186c3.67 0 6.746 4.648 6.746 10.344s-3.076 10.342-6.746 10.342h-92.88v30.128h92.88c14.686 0 26.692-18.136 26.692-40.47s-12.006-40.47-26.692-40.47zM850.514 768.466l76.308 0.45 0.1-30.128-76.408-0.45v30.128z m0 49.764l76.308 0.45 0.1-30.128-76.408-0.45c-12.8 0-23.32-15.89-23.32-35.226s10.52-35.074 23.32-35.074l76.308 0.45 0.1-30.128-76.408-0.6c-23.814 0-43.264 29.38-43.264 65.352 0 35.974 19.45 65.354 43.264 65.354z" p-id="2167"></path><path d="M531.448 616.2h-123.944c-57.672 0-104.496-46.822-104.496-104.494V302.712c0-57.672 46.824-104.494 104.496-104.494h208.992c57.674 0 104.496 46.82 104.496 104.494v46.194h-77.588v-7.4c0-36.26-29.44-65.7-65.702-65.7h-131.404c-36.262 0-65.702 29.44-65.702 65.7v131.406c0 36.26 29.44 65.7 65.702 65.7h85.106l0.044 77.588z" p-id="2168"></path><path d="M570.274 538.614h7.428c36.262 0 65.7-29.44 65.7-65.702v-7.4h77.59v46.194c0 57.672-46.822 104.494-104.496 104.494h-46.18l-0.042-77.586z" p-id="2169"></path><path d="M643.404 387.774h77.588v38.868h-77.588z" fill="#CC0E0E" p-id="2170"></path></svg>