<?xml version="1.0" encoding="UTF-8" standalone="no"?>
<!DOCTYPE svg PUBLIC "-//W3C//DTD SVG 1.1//EN" "http://www.w3.org/Graphics/SVG/1.1/DTD/svg11.dtd">
<svg width="100%" height="100%" viewBox="0 0 2048 512" version="1.1" xmlns="http://www.w3.org/2000/svg" xmlns:xlink="http://www.w3.org/1999/xlink" xml:space="preserve" xmlns:serif="http://www.serif.com/" style="fill-rule:evenodd;clip-rule:evenodd;stroke-linejoin:round;stroke-miterlimit:2;">
    <g>
        <g transform="matrix(1.24905,0,0,1.24905,-49.6659,-27.5664)">
            <path d="M258.512,375.148L170.667,375.148C129.792,375.148 96.606,341.962 96.606,301.087L96.606,152.964C96.606,112.088 129.792,78.903 170.667,78.903L318.79,78.903C359.666,78.903 392.852,112.088 392.852,152.964L392.852,185.703L337.861,185.703L337.861,180.459C337.861,154.759 316.996,133.893 291.295,133.893L198.163,133.893C172.462,133.893 151.596,154.759 151.596,180.459L151.596,273.592C151.596,299.292 172.462,320.158 198.163,320.158L258.482,320.158L258.512,375.148Z"/>
        </g>
        <g transform="matrix(1.24905,0,0,1.24905,-49.6659,-27.5664)">
            <path d="M286.03,320.158L291.295,320.158C316.996,320.158 337.861,299.292 337.861,273.592L337.861,268.348L392.852,268.348L392.852,301.087C392.852,341.962 359.666,375.148 318.79,375.148L286.061,375.148L286.03,320.158Z"/>
        </g>
        <g transform="matrix(1.94139,0,0,2.93259,318.353,-655.476)">
            <path d="M338.719,272.327L245.722,272.327L245.722,290.036L324.479,290.036L253.722,320.763C247.044,323.323 243.257,329.974 244.489,337.061C245.74,344.262 251.719,349.291 259.027,349.291L352.025,349.291L352.025,331.582L273.265,331.582L344.024,300.855C350.702,298.295 354.49,291.644 353.258,284.557C352.007,277.356 346.028,272.327 338.719,272.327L338.719,272.327Z" style="fill-rule:nonzero;"/>
        </g>
        <g transform="matrix(1.94139,0,0,2.93259,318.353,-655.476)">
            <path d="M581.987,301.955L523.253,301.955C519.917,301.955 517.203,299.24 517.203,295.905C517.203,292.568 519.917,289.854 523.253,289.854L605.539,289.853L605.539,272.145L523.253,272.145C510.152,272.145 499.494,282.803 499.494,295.905C499.494,309.006 510.152,319.664 523.253,319.664L581.987,319.664C585.323,319.664 588.037,322.378 588.037,325.714C588.037,329.05 585.323,331.765 581.987,331.765L499.538,331.764L499.538,349.473L581.987,349.474C595.088,349.474 605.746,338.816 605.746,325.714C605.746,312.613 595.088,301.955 581.987,301.955Z" style="fill-rule:nonzero;"/>
        </g>
        <g transform="matrix(1.94139,0,0,2.93259,318.353,-655.476)">
            <path d="M707.595,301.955L648.861,301.955C645.525,301.955 642.811,299.24 642.811,295.905C642.811,292.568 645.525,289.854 648.861,289.854L731.147,289.853L731.147,272.145L648.861,272.145C635.76,272.145 625.102,282.803 625.102,295.905C625.102,309.006 635.76,319.664 648.861,319.664L707.595,319.664C710.931,319.664 713.645,322.378 713.645,325.714C713.645,329.05 710.931,331.765 707.595,331.765L625.146,331.764L625.146,349.473L707.595,349.474C720.696,349.474 731.354,338.816 731.354,325.714C731.354,312.613 720.696,301.955 707.595,301.955Z" style="fill-rule:nonzero;"/>
        </g>
        <g transform="matrix(1.94139,0,0,2.93259,318.353,-655.476)">
            <path d="M786.524,319.811L854.281,320.106L854.359,302.397L786.601,302.102L786.524,319.811ZM786.524,349.031L854.281,349.326L854.359,331.617L786.562,331.322C775.17,331.322 765.902,322.054 765.902,310.662C765.902,299.27 775.17,290.001 786.524,290.001L854.281,290.296L854.359,272.588L786.562,272.292C765.406,272.292 748.193,289.505 748.193,310.662C748.193,331.818 765.406,349.031 786.524,349.031L786.524,349.031Z" style="fill-rule:nonzero;"/>
        </g>
    </g>
    <g>
        <g transform="matrix(1.24905,0,0,1.24905,-49.6659,-27.5664)">
            <rect x="337.861" y="213.251" width="54.99" height="27.548" style="fill:rgb(204,14,14);"/>
        </g>
        <g transform="matrix(1.94139,0,0,2.93259,318.353,-655.476)">
            <path d="M156.105,319.811L223.863,320.106L223.94,302.397L156.182,302.102L156.105,319.811ZM156.105,349.031L223.863,349.326L223.94,331.617L156.144,331.322C144.752,331.322 135.483,322.054 135.483,310.662C135.483,299.27 144.752,290.001 156.105,290.001L223.863,290.296L223.94,272.588L156.144,272.292C134.987,272.292 117.774,289.505 117.774,310.662C117.774,331.818 134.987,349.031 156.105,349.031L156.105,349.031Z" style="fill:rgb(204,14,14);fill-rule:nonzero;"/>
        </g>
        <g transform="matrix(1.94139,0,0,2.93259,318.353,-655.476)">
            <path d="M391.594,290.121L462.429,290.121L462.429,305.173L403.4,305.173L403.4,322.882L462.429,322.882L462.429,349.207L480.138,349.207L480.138,287.169C480.138,279.032 473.518,272.412 465.381,272.412L388.643,272.412C380.506,272.412 373.886,279.032 373.886,287.169L373.886,349.207L391.594,349.207L391.594,290.121L391.594,290.121Z" style="fill:rgb(204,14,14);fill-rule:nonzero;"/>
        </g>
    </g>
</svg>
