<?xml version="1.0" encoding="UTF-8" standalone="no"?>
<!DOCTYPE svg PUBLIC "-//W3C//DTD SVG 1.1//EN" "http://www.w3.org/Graphics/SVG/1.1/DTD/svg11.dtd">
<svg width="100%" height="100%" viewBox="0 0 2048 512" version="1.1" xmlns="http://www.w3.org/2000/svg" xmlns:xlink="http://www.w3.org/1999/xlink" xml:space="preserve" xmlns:serif="http://www.serif.com/" style="fill-rule:evenodd;clip-rule:evenodd;stroke-linejoin:round;stroke-miterlimit:2;">
    <g transform="matrix(1,0,0,1,71,71)">
        <g id="r1" transform="matrix(1.5214,0,0,1.5214,-219.693,-34.6931)">
            <path d="M205.201,144.402C238.757,144.402 266,171.645 266,205.201C266,238.757 238.757,266 205.201,266C171.645,266 144.402,238.757 144.402,205.201C144.402,171.645 171.645,144.402 205.201,144.402ZM285,39.903C292.34,39.903 298.3,45.863 298.3,53.203C298.3,60.543 292.34,66.503 285,66.503C277.659,66.503 271.7,60.543 271.7,53.203C271.7,45.863 277.659,39.903 285,39.903ZM365.749,135.852C370.467,135.852 374.299,139.683 374.299,144.402C374.299,149.12 370.467,152.952 365.749,152.952C361.03,152.952 357.199,149.12 357.199,144.402C357.199,139.683 361.03,135.852 365.749,135.852Z" style="fill:rgb(204,14,14);"/>
        </g>
        <g id="r2" transform="matrix(1.34311,0,0,1.34311,-193.948,-193.948)">
            <path d="M205.201,144.402C238.757,144.402 266,171.645 266,205.201C266,238.757 238.757,266 205.201,266C171.645,266 144.402,238.757 144.402,205.201C144.402,171.645 171.645,144.402 205.201,144.402ZM367.153,314.424C396.254,314.424 419.881,338.051 419.881,367.153C419.881,396.254 396.254,419.881 367.153,419.881C338.051,419.881 314.424,396.254 314.424,367.153C314.424,338.051 338.051,314.424 367.153,314.424ZM318.728,225.109C343.376,225.109 363.386,245.119 363.386,269.766C363.386,294.414 343.376,314.424 318.728,314.424C294.081,314.424 274.071,294.414 274.071,269.766C274.071,245.119 294.081,225.109 318.728,225.109ZM383.294,144.402C403.487,144.402 419.881,160.796 419.881,180.989C419.881,201.182 403.487,217.576 383.294,217.576C363.101,217.576 346.707,201.182 346.707,180.989C346.707,160.796 363.101,144.402 383.294,144.402Z"/>
        </g>
    </g>
    <g transform="matrix(3.48062,0,0,3.48062,266.582,-1033.13)">
        <g transform="matrix(75,0,0,75,84.0623,403.091)">
            <path d="M0.937,-0.874C0.937,-0.874 0.168,-0.874 0.168,-0.874C0.075,-0.874 -0,-0.799 -0,-0.707L-0,0.002L0.201,0.002L0.201,-0.673L0.937,-0.673C0.974,-0.673 1.005,-0.642 1.005,-0.604C1.005,-0.567 0.974,-0.536 0.937,-0.536L0.335,-0.536L0.335,-0.335L0.937,-0.335C1.085,-0.335 1.206,-0.456 1.206,-0.604C1.206,-0.753 1.085,-0.874 0.937,-0.874Z" style="fill-rule:nonzero;"/>
        </g>
        <g transform="matrix(75,0,0,75,185.612,403.091)">
            <path d="M0,-0.2L0.001,0.001L0.659,-0.001L0.698,-0.001L0.698,-0.001L1.194,-0.003L1.193,-0.204L0.698,-0.202L0.698,-0.671L1.194,-0.673L1.193,-0.874L0.698,-0.872L0.698,-0.873L0.497,-0.873L0.497,-0.872L0,-0.87L0.001,-0.669L0.497,-0.67L0.497,-0.201L0,-0.2Z" style="fill-rule:nonzero;"/>
        </g>
        <g transform="matrix(75,0,0,75,291.662,403.091)">
            <path d="M0.937,-0.537L0.27,-0.537C0.232,-0.537 0.201,-0.568 0.201,-0.605C0.201,-0.643 0.232,-0.674 0.27,-0.674L1.204,-0.674L1.204,-0.875L0.27,-0.875C0.121,-0.875 -0,-0.754 -0,-0.605C-0,-0.457 0.121,-0.336 0.27,-0.336L0.937,-0.336C0.974,-0.336 1.005,-0.305 1.005,-0.267C1.005,-0.229 0.974,-0.198 0.937,-0.198L0.001,-0.198L0.001,0.003L0.937,0.003C1.085,0.003 1.206,-0.118 1.206,-0.267C1.206,-0.416 1.085,-0.537 0.937,-0.537Z" style="fill-rule:nonzero;"/>
        </g>
        <g transform="matrix(75,0,0,75,398.612,403.091)">
            <path d="M1.101,-0.863C1.037,-0.888 0.966,-0.873 0.918,-0.823L0.908,-0.813L0.603,-0.242L0.298,-0.813L0.288,-0.823C0.241,-0.873 0.169,-0.888 0.105,-0.863C0.041,-0.837 0,-0.776 0,-0.707L0,-0.001L0.201,-0.001L0.201,-0.568L0.473,-0.059L0.482,-0.049C0.514,-0.016 0.558,0.002 0.603,0.002C0.649,0.002 0.693,-0.016 0.724,-0.049L0.734,-0.059L1.005,-0.568L1.005,-0.001L1.206,-0.001L1.206,-0.707C1.206,-0.776 1.165,-0.837 1.101,-0.863Z" style="fill-rule:nonzero;"/>
        </g>
    </g>
</svg>
